<?xml version="1.0" standalone="no"?>
<!DOCTYPE svg PUBLIC "-//W3C//DTD SVG 20010904//EN"
 "http://www.w3.org/TR/2001/REC-SVG-20010904/DTD/svg10.dtd">
<svg version="1.0" xmlns="http://www.w3.org/2000/svg"
 width="740.000000pt" height="740.000000pt" viewBox="0 0 740.000000 740.000000"
 preserveAspectRatio="xMidYMid meet">

<g transform="translate(0.000000,740.000000) scale(0.100000,-0.100000)"
fill="#000000" stroke="none">
<path d="M1786 6914 c-364 -66 -689 -306 -855 -630 -90 -176 -131 -347 -131
-548 0 -211 35 -360 125 -541 194 -389 574 -639 1005 -662 64 -3 145 -3 182 1
62 7 66 9 70 34 2 15 1 43 -2 62 l-5 35 -155 1 c-166 0 -236 10 -358 51 -366
122 -630 424 -714 818 -7 35 -12 121 -12 205 1 161 22 266 84 412 75 181 257
390 426 489 317 186 680 206 1000 55 164 -78 303 -189 404 -325 l49 -68 68 14
c37 8 69 15 70 17 10 10 -135 191 -212 264 -234 224 -512 333 -840 331 -66 0
-156 -7 -199 -15z"/>
<path d="M3037 6180 c-194 -31 -378 -107 -527 -217 -45 -34 -202 -184 -197
-190 2 -1 27 4 56 12 151 40 393 44 551 10 252 -54 470 -171 651 -350 178
-176 300 -401 355 -655 34 -157 21 -471 -23 -587 -6 -15 -2 -14 21 4 l27 22
117 -68 c274 -160 321 -187 396 -228 43 -25 89 -51 102 -60 13 -8 29 -11 36
-7 7 4 10 4 6 -1 -5 -5 1 -14 11 -22 17 -12 34 -5 152 57 73 38 135 67 138 64
3 -2 8 -70 12 -150 4 -80 9 -147 11 -149 2 -1 25 -16 52 -33 l48 -31 132 67
c72 37 134 68 137 70 8 4 18 -107 20 -216 l2 -82 55 -35 56 -34 132 69 c72 39
134 70 137 70 5 0 22 -288 18 -304 -1 -5 5 -6 14 -2 9 3 13 2 10 -3 -3 -5 -1
-12 5 -16 5 -3 10 -2 10 3 0 6 14 -3 32 -19 17 -17 37 -28 45 -25 8 3 12 2 9
-3 -7 -11 22 -23 36 -14 7 4 8 1 3 -7 -6 -10 -4 -12 9 -7 9 4 15 3 12 -2 -4
-5 14 -21 39 -35 l45 -27 170 43 c102 25 165 45 157 50 -6 4 4 5 23 2 28 -5
32 -3 20 6 -13 10 -12 11 4 5 15 -4 197 30 214 41 4 3 -37 84 -43 84 -2 0 -2
-6 1 -14 3 -8 1 -17 -4 -20 -5 -3 -8 6 -6 20 3 33 -5 56 -17 48 -5 -3 -8 -2
-7 3 4 13 -23 73 -33 73 -5 0 -8 3 -7 8 2 4 -26 58 -61 120 -64 112 -98 151
-122 136 -7 -4 -9 -3 -6 3 3 5 -125 86 -286 178 -161 93 -375 217 -477 275
-102 59 -300 173 -440 254 -140 82 -373 216 -518 299 -223 130 -261 155 -258
172 16 69 27 221 21 295 -41 519 -394 925 -900 1036 -84 19 -298 26 -378 14z
m3530 -2976 c-3 -3 -12 -4 -19 -1 -8 3 -5 6 6 6 11 1 17 -2 13 -5z m-40 -10
c-3 -3 -12 -4 -19 -1 -8 3 -5 6 6 6 11 1 17 -2 13 -5z m-712 -14 c3 -6 -1 -7
-9 -4 -18 7 -21 14 -7 14 6 0 13 -4 16 -10z m622 -6 c-3 -3 -12 -4 -19 -1 -8
3 -5 6 6 6 11 1 17 -2 13 -5z m-195 -39 c0 -5 -5 -10 -11 -11 -8 -2 -7 -1 0 3
8 4 7 8 -2 15 -11 8 -11 9 -1 6 8 -2 14 -8 14 -13z m-77 -25 c3 -6 -1 -7 -9
-4 -18 7 -21 14 -7 14 6 0 13 -4 16 -10z"/>
<path d="M2475 5654 c-44 -8 -109 -24 -145 -36 l-64 -21 59 -17 c271 -78 536
-270 692 -500 153 -228 224 -458 224 -731 0 -288 -93 -564 -264 -779 -20 -24
-33 -48 -30 -54 3 -5 2 -6 -4 -3 -5 3 -25 -13 -45 -36 l-35 -42 30 0 c28 0 35
-9 100 -120 38 -66 79 -137 90 -158 15 -27 23 -34 30 -25 6 9 7 7 3 -5 -8 -26
42 -110 62 -102 12 4 13 3 2 -10 -8 -10 -9 -15 -1 -15 6 0 10 -3 9 -7 -2 -7
40 -88 67 -132 6 -9 23 -37 39 -63 15 -27 33 -48 39 -48 7 0 5 5 -3 10 -8 5
-11 10 -6 10 5 0 3 7 -4 15 -9 11 -9 15 -1 15 9 0 9 5 0 21 -8 16 -8 24 2 33
9 8 10 8 5 -1 -3 -6 -1 -15 5 -19 7 -4 10 -3 7 2 -3 5 -2 20 3 33 7 17 13 21
20 14 8 -8 8 -17 0 -31 -8 -15 -8 -23 1 -28 7 -4 8 -3 4 4 -5 9 74 12 314 12
196 0 319 4 315 9 -3 5 -1 12 5 16 6 4 10 -5 10 -21 0 -23 2 -25 17 -13 15 13
15 12 4 -10 -11 -19 -11 -22 0 -16 9 6 11 3 6 -9 -4 -10 -7 -21 -7 -24 -1 -4
-7 4 -15 18 -8 14 -14 21 -14 15 -1 -17 17 -38 33 -41 8 -1 13 3 10 11 -3 7
-1 16 5 20 11 6 14 -4 12 -35 0 -10 1 -11 5 -2 3 6 10 9 16 6 6 -4 3 7 -7 24
-10 17 -23 28 -28 25 -5 -3 -8 0 -5 8 4 13 -54 126 -109 212 -15 23 -28 45
-29 50 -1 4 -2 10 -3 15 -1 4 -8 -4 -16 -18 -16 -28 -21 -19 -5 10 8 14 0 35
-34 94 -23 42 -46 73 -51 68 -5 -4 -5 -2 -1 5 8 14 -33 85 -45 77 -5 -3 -6 3
-2 12 5 13 3 15 -7 9 -9 -5 -11 -4 -6 3 9 15 -68 145 -79 134 -4 -4 -5 -2 -2
5 4 6 -27 70 -68 141 -41 71 -75 134 -75 140 0 6 14 27 30 45 17 19 30 38 30
41 0 4 11 19 24 33 39 42 134 240 161 336 166 590 -154 1189 -740 1385 -149
50 -376 65 -540 36z m513 -2299 c-3 -3 -9 2 -12 12 -6 14 -5 15 5 6 7 -7 10
-15 7 -18z m122 -200 c0 -5 -5 -3 -10 5 -5 8 -10 20 -10 25 0 6 5 3 10 -5 5
-8 10 -19 10 -25z m700 31 c0 -2 -8 -10 -17 -17 -16 -13 -17 -12 -4 4 13 16
21 21 21 13z m58 -71 c-3 -3 -9 2 -12 12 -6 14 -5 15 5 6 7 -7 10 -15 7 -18z
m-17 -38 c-10 -9 -11 -8 -5 6 3 10 9 15 12 12 3 -3 0 -11 -7 -18z m-688 -12
c-3 -9 -8 -14 -10 -11 -3 3 -2 9 2 15 9 16 15 13 8 -4z m31 -12 c4 -10 4 -14
0 -10 -4 4 -14 1 -22 -6 -13 -11 -14 -9 -1 11 17 26 15 26 23 5z m740 -38 c9
-14 13 -25 8 -25 -5 0 -14 11 -20 25 -6 14 -10 25 -8 25 2 0 11 -11 20 -25z
m-38 0 c17 -16 14 -18 -10 -9 -9 3 -16 10 -16 15 0 13 9 11 26 -6z m-637 -64
c-1 -20 -2 -22 -6 -6 -3 11 -9 24 -14 30 -15 15 -10 28 6 15 8 -7 14 -24 14
-39z m-24 -12 c7 -31 15 -35 31 -19 7 7 11 6 11 -4 0 -8 -4 -13 -8 -10 -4 2
-11 -1 -15 -7 -4 -7 -16 9 -30 37 -28 58 -29 60 -10 45 8 -7 18 -26 21 -42z
m715 -3 c0 -5 -7 -1 -15 10 -8 10 -14 24 -14 29 0 6 6 1 14 -9 8 -11 15 -24
15 -30z m30 4 c6 -11 8 -20 6 -20 -3 0 -10 9 -16 20 -6 11 -8 20 -6 20 3 0 10
-9 16 -20z m-660 -60 c0 -5 -9 -14 -20 -20 -18 -10 -19 -13 -5 -26 8 -9 15
-21 15 -27 0 -14 -39 34 -40 49 0 14 21 34 37 34 7 0 13 -4 13 -10z"/>
<path d="M1762 5466 c-182 -35 -392 -131 -499 -229 -27 -25 -22 -36 55 -121
92 -101 210 -183 344 -239 37 -15 39 -15 67 9 16 13 56 37 88 52 50 23 71 27
148 27 76 0 99 -5 147 -27 75 -35 138 -94 179 -170 33 -60 34 -68 34 -168 0
-127 -17 -171 -96 -255 -72 -77 -140 -107 -249 -113 -69 -3 -95 0 -141 17 -75
28 -132 71 -174 129 -31 44 -42 51 -132 85 -186 68 -353 176 -496 319 -43 43
-80 78 -82 78 -8 0 -65 -152 -86 -230 -21 -75 -23 -107 -23 -275 0 -174 2
-198 27 -289 29 -109 88 -239 150 -331 60 -89 127 -166 139 -159 6 4 8 3 5 -3
-8 -13 66 -85 84 -81 8 2 13 -2 12 -9 -1 -6 4 -17 12 -23 8 -7 15 -10 15 -6 0
3 9 -3 20 -14 12 -12 26 -18 32 -14 6 4 9 3 5 -2 -7 -12 116 -86 147 -88 13 0
22 -4 20 -8 -6 -10 65 -31 82 -24 8 3 13 2 10 -3 -3 -5 1 -11 9 -15 13 -5 15
-60 17 -393 2 -378 3 -382 8 -138 4 198 6 225 10 130 l4 -120 6 120 6 120 4
-130 c2 -101 5 -118 9 -75 l7 55 12 -35 12 -35 -5 35 c-4 28 -2 31 6 17 6 -10
9 -29 7 -44 -2 -14 2 -28 9 -30 7 -3 11 11 11 39 1 75 4 89 16 85 6 -2 10 -14
9 -25 -3 -21 0 -21 236 -24 188 -2 237 0 234 10 -3 6 0 12 6 12 6 0 12 -33 14
-82 2 -56 4 -31 7 77 3 138 4 149 10 80 l6 -80 5 70 c3 39 7 -114 9 -340 l5
-410 5 555 5 555 23 3 c12 2 20 8 17 13 -3 5 0 7 7 4 17 -6 144 52 141 64 -2
6 5 7 14 4 11 -4 14 -3 9 5 -4 7 -2 10 7 7 17 -7 100 52 92 65 -4 6 1 7 11 3
13 -5 15 -3 9 7 -5 8 -4 11 3 6 6 -3 37 16 69 43 78 65 106 97 98 111 -3 6 -1
9 6 8 19 -4 105 116 156 216 84 167 123 329 123 511 0 304 -114 578 -330 795
-144 145 -312 242 -515 298 -113 30 -366 40 -483 18z m-115 -2378 c-3 -8 -6
-5 -6 6 -1 11 2 17 5 13 3 -3 4 -12 1 -19z m0 -55 c-3 -10 -5 -4 -5 12 0 17 2
24 5 18 2 -7 2 -21 0 -30z"/>
<path d="M2273 2800 c0 -25 2 -35 4 -22 2 12 2 32 0 45 -2 12 -4 2 -4 -23z"/>
<path d="M3341 2810 c0 -8 4 -22 9 -30 12 -18 12 -2 0 25 -6 13 -9 15 -9 5z"/>
<path d="M1651 2744 c0 -11 3 -14 6 -6 3 7 2 16 -1 19 -3 4 -6 -2 -5 -13z"/>
<path d="M3398 2753 c29 -2 74 -2 100 0 26 2 2 3 -53 3 -55 0 -76 -1 -47 -3z"/>
<path d="M3554 2748 c-3 -4 11 -8 32 -8 31 0 36 -3 31 -20 -3 -13 -1 -18 6
-13 6 4 8 0 4 -9 -4 -12 -1 -14 15 -10 18 4 18 6 4 14 -18 10 -22 38 -4 38 6
0 8 3 4 7 -10 10 -86 11 -92 1z"/>
<path d="M4094 2726 c0 -14 6 -22 13 -19 9 4 10 10 2 24 -13 25 -17 24 -15 -5z"/>
<path d="M4110 2691 c-8 -6 -17 -8 -20 -6 -3 2 -4 -13 -1 -33 l5 -37 7 35 c3
19 7 26 8 14 0 -11 8 -29 17 -40 14 -18 15 -18 8 6 -5 14 -8 35 -9 48 0 12 0
22 0 22 0 0 -7 -4 -15 -9z"/>
<path d="M1653 2645 c0 -27 2 -38 4 -22 2 15 2 37 0 50 -2 12 -4 0 -4 -28z"/>
<path d="M3585 2660 c-9 -16 -13 -30 -11 -30 3 0 12 14 21 30 9 17 13 30 11
30 -3 0 -12 -13 -21 -30z"/>
<path d="M4140 2650 c0 -5 5 -10 11 -10 5 0 7 5 4 10 -3 6 -8 10 -11 10 -2 0
-4 -4 -4 -10z"/>
<path d="M4176 2564 c-9 -24 -2 -26 12 -4 7 11 8 20 3 20 -5 0 -12 -7 -15 -16z"/>
<path d="M3540 2540 c6 -11 13 -20 16 -20 2 0 0 9 -6 20 -6 11 -13 20 -16 20
-2 0 0 -9 6 -20z"/>
<path d="M4196 2552 c-3 -5 1 -9 9 -9 8 0 12 4 9 9 -3 4 -7 8 -9 8 -2 0 -6 -4
-9 -8z"/>
<path d="M1630 2491 c0 -6 5 -13 10 -16 6 -3 10 1 10 9 0 9 -4 16 -10 16 -5 0
-10 -4 -10 -9z"/>
<path d="M4250 2470 c6 -11 13 -20 16 -20 2 0 0 9 -6 20 -6 11 -13 20 -16 20
-2 0 0 -9 6 -20z"/>
<path d="M3496 2467 c3 -10 9 -15 12 -12 3 3 0 11 -7 18 -10 9 -11 8 -5 -6z"/>
<path d="M3511 2418 c5 -10 11 -18 12 -18 2 0 3 8 3 18 0 10 -6 19 -13 19 -8
0 -9 -6 -2 -19z"/>
<path d="M1734 2416 c11 -9 24 -16 30 -16 12 0 7 5 -24 19 -24 11 -24 11 -6
-3z"/>
<path d="M4285 2389 c-4 -6 -5 -12 -2 -15 2 -3 7 2 10 11 7 17 1 20 -8 4z"/>
<path d="M1800 2374 c0 -1 12 -10 28 -20 19 -13 24 -13 15 -2 -7 8 -11 17 -8
19 2 3 -5 5 -15 5 -11 0 -20 -1 -20 -2z"/>
<path d="M3663 2353 c15 -2 39 -2 55 0 15 2 2 4 -28 4 -30 0 -43 -2 -27 -4z"/>
<path d="M1879 2313 c-13 -16 -12 -17 4 -4 9 7 17 15 17 17 0 8 -8 3 -21 -13z"/>
<path d="M1823 2225 c0 -8 4 -12 9 -9 5 3 6 10 3 15 -9 13 -12 11 -12 -6z"/>
<path d="M1716 2205 c-11 -8 -16 -15 -10 -15 5 0 18 7 28 15 11 8 16 15 10 15
-5 0 -18 -7 -28 -15z"/>
<path d="M1720 1967 c0 -3 12 -12 26 -22 15 -9 23 -12 20 -6 -7 11 -46 35 -46
28z"/>
</g>
</svg>
